<?xml version="1.0" encoding="UTF-8" standalone="no"?>
<svg
   viewBox="0 0 640 640"
   version="1.1"
   id="svg1"
   sodipodi:docname="add_house.svg"
   inkscape:version="1.4.3 (0d15f75042, 2025-12-25)"
   xmlns:inkscape="http://www.inkscape.org/namespaces/inkscape"
   xmlns:sodipodi="http://sodipodi.sourceforge.net/DTD/sodipodi-0.dtd"
   xmlns="http://www.w3.org/2000/svg"
   xmlns:svg="http://www.w3.org/2000/svg">
  <defs
     id="defs1" />
  <sodipodi:namedview
     id="namedview1"
     pagecolor="#ffffff"
     bordercolor="#000000"
     borderopacity="0.25"
     inkscape:showpageshadow="2"
     inkscape:pageopacity="0.0"
     inkscape:pagecheckerboard="0"
     inkscape:deskcolor="#d1d1d1"
     inkscape:zoom="1.0960155"
     inkscape:cx="311.12698"
     inkscape:cy="328.46251"
     inkscape:window-width="1920"
     inkscape:window-height="1080"
     inkscape:window-x="0"
     inkscape:window-y="0"
     inkscape:window-maximized="1"
     inkscape:current-layer="svg1" />
  <!--!Font Awesome Free 7.2.0 by @fontawesome - https://fontawesome.com License - https://fontawesome.com/license/free Copyright 2026 Fonticons, Inc.-->
  <path
     d="M298.2 72.6C310.5 61.2 329.5 61.2 341.7 72.6L432 156.3L432 144C432 126.3 446.3 112 464 112L496 112C513.7 112 528 126.3 528 144L528 245.5L565.8 280.6C575.4 289.6 578.6 303.5 573.8 315.7C569 327.9 557.2 336 544 336L528 336L528 512C528 547.3 499.3 576 464 576L176 576C140.7 576 112 547.3 112 512L112 336L96 336C82.8 336 71 327.9 66.2 315.7C61.4 303.5 64.6 289.5 74.2 280.6L298.2 72.6zM288 312L288 352L248 352C239.2 352 232 359.2 232 368L232 400C232 408.8 239.2 416 248 416L288 416L288 456C288 464.8 295.2 472 304 472L336 472C344.8 472 352 464.8 352 456L352 416L392 416C400.8 416 408 408.8 408 400L408 368C408 359.2 400.8 352 392 352L352 352L352 312C352 303.2 344.8 296 336 296L304 296C295.2 296 288 303.2 288 312z"
     id="path1"
     style="fill:#008a5c;fill-opacity:1" />
</svg>
