<?xml version="1.0" encoding="UTF-8" standalone="no"?>
<svg
   viewBox="0 0 640 640"
   version="1.1"
   id="svg1"
   sodipodi:docname="mortgage_property.svg"
   inkscape:version="1.4.3 (0d15f75042, 2025-12-25)"
   xmlns:inkscape="http://www.inkscape.org/namespaces/inkscape"
   xmlns:sodipodi="http://sodipodi.sourceforge.net/DTD/sodipodi-0.dtd"
   xmlns="http://www.w3.org/2000/svg"
   xmlns:svg="http://www.w3.org/2000/svg">
  <defs
     id="defs1" />
  <sodipodi:namedview
     id="namedview1"
     pagecolor="#ffffff"
     bordercolor="#000000"
     borderopacity="0.25"
     inkscape:showpageshadow="2"
     inkscape:pageopacity="0.0"
     inkscape:pagecheckerboard="0"
     inkscape:deskcolor="#d1d1d1"
     inkscape:zoom="1.0960155"
     inkscape:cx="297.44105"
     inkscape:cy="316.60136"
     inkscape:window-width="1920"
     inkscape:window-height="1080"
     inkscape:window-x="0"
     inkscape:window-y="0"
     inkscape:window-maximized="1"
     inkscape:current-layer="svg1" />
  <!--!Font Awesome Free 7.2.0 by @fontawesome - https://fontawesome.com License - https://fontawesome.com/license/free Copyright 2026 Fonticons, Inc.-->
  <path
     d="m 528,288.1 c 44.2,0 80,35.8 80,80 v 50.6 c 18.6,6.6 32,24.4 32,45.3 v 96 c 0,26.5 -21.5,48 -48,48 H 464 c -26.5,0 -48,-21.5 -48,-48 v -96 c 0,-20.9 13.4,-38.7 32,-45.3 v -50.6 c 0,-44.2 35.8,-80 80,-80 z M 268.6,70.5 c 12.2,-9.3 29.7,-8.7 41.2,2 l 185,171.8 C 440.2,259 400,308.8 400,368 v 24.4 c -19.6,17.6 -32,43.1 -32,71.5 v 96 c 0,5.5 0.5,10.9 1.3,16.1 H 144 C 108.7,576 80,547.3 80,512 V 336 H 64 c -13.2,0 -25,-8.1 -29.8,-20.3 -4.8,-12.2 -1.6,-26.2 8,-35.1 l 224,-208 2.4,-2 z M 528,336.1 c -17.7,0 -32,14.3 -32,32 V 416 h 64 v -47.9 c 0,-17.7 -14.3,-32 -32,-32 z"
     id="path1"
     style="fill:#008a5c;fill-opacity:1"
     sodipodi:nodetypes="sscsssssscsscccscsscsscssccccssccss" />
</svg>
