<?xml version="1.0" encoding="UTF-8" standalone="no"?>
<svg
   viewBox="0 0 640 640"
   version="1.1"
   id="svg1"
   sodipodi:docname="remove_house.svg"
   inkscape:version="1.4.3 (0d15f75042, 2025-12-25)"
   xmlns:inkscape="http://www.inkscape.org/namespaces/inkscape"
   xmlns:sodipodi="http://sodipodi.sourceforge.net/DTD/sodipodi-0.dtd"
   xmlns="http://www.w3.org/2000/svg"
   xmlns:svg="http://www.w3.org/2000/svg">
  <defs
     id="defs1" />
  <sodipodi:namedview
     id="namedview1"
     pagecolor="#ffffff"
     bordercolor="#000000"
     borderopacity="0.25"
     inkscape:showpageshadow="2"
     inkscape:pageopacity="0.0"
     inkscape:pagecheckerboard="0"
     inkscape:deskcolor="#d1d1d1"
     inkscape:zoom="1.0960155"
     inkscape:cx="311.12698"
     inkscape:cy="328.46251"
     inkscape:window-width="1920"
     inkscape:window-height="1080"
     inkscape:window-x="0"
     inkscape:window-y="0"
     inkscape:window-maximized="1"
     inkscape:current-layer="svg1" />
  <!--!Font Awesome Free 7.2.0 by @fontawesome - https://fontawesome.com License - https://fontawesome.com/license/free Copyright 2026 Fonticons, Inc.-->
  <path
     d="m 298.2,72.6 c 12.3,-11.4 31.3,-11.4 43.5,0 L 432,156.3 V 144 c 0,-17.7 14.3,-32 32,-32 h 32 c 17.7,0 32,14.3 32,32 v 101.5 l 37.8,35.1 c 9.6,9 12.8,22.9 8,35.1 C 569,327.9 557.2,336 544,336 h -16 v 176 c 0,35.3 -28.7,64 -64,64 H 176 c -35.3,0 -64,-28.7 -64,-64 V 336 H 96 c -13.2,0 -25,-8.1 -29.8,-20.3 -4.8,-12.2 -1.6,-26.2 8,-35.1 z M 248,352 c -8.8,0 -16,7.2 -16,16 v 32 c 0,8.8 7.2,16 16,16 h 144 c 8.8,0 16,-7.2 16,-16 v -32 c 0,-8.8 -7.2,-16 -16,-16 z"
     id="path1"
     style="fill:#008a5c;fill-opacity:1"
     sodipodi:nodetypes="cccssssccsscsssscssccsssssssss" />
</svg>
