<?xml version="1.0" encoding="UTF-8" standalone="no"?>
<svg
   version="1.1"
   id="svg232"
   width="32"
   height="38"
   xmlns="http://www.w3.org/2000/svg"
   xmlns:svg="http://www.w3.org/2000/svg">
  <defs
     id="defs78">
    <linearGradient
       gradientUnits="userSpaceOnUse"
       x1="-819.20001"
       x2="819.20001"
       spreadMethod="pad"
       gradientTransform="matrix(0,-0.00366211,0.00366211,0,356,55)"
       id="gradient11">
      <stop
         offset="0"
         stop-color="#FFFFFF"
         id="stop23" />
      <stop
         offset="1"
         stop-color="#E2E2E2"
         id="stop24" />
    </linearGradient>
  </defs>
  <g
     id="g247"
     transform="translate(-340,-20)">
    <path
       stroke="none"
       fill="#ffffff"
       d="m 344,20 h 24 q 4,0 4,4 v 24 q 0,4 -4,4 h -24 q -4,0 -4,-4 V 24 q 0,-4 4,-4"
       id="path103" />
    <path
       stroke="none"
       fill="url(#gradient11)"
       d="m 362,52 -6,6 -6,-6 h 12"
       id="path104"
       style="fill:url(#gradient11)" />
    <path
       stroke="none"
       fill="#ff3300"
       d="m 352.95,37 v -8 q 0,-0.85 0.6,-1.4 0.55,-0.6 1.4,-0.6 H 357 q 0.85,0 1.45,0.6 0.55,0.55 0.55,1.4 v 8 q 0,0.85 -0.55,1.45 Q 357.85,39 357,39 h -2.05 q -0.85,0 -1.4,-0.55 -0.6,-0.6 -0.6,-1.45 m 6.05,7 q 0,1.25 -0.9,2.1 -0.85,0.9 -2.1,0.9 -1.25,0 -2.15,-0.9 Q 353,45.25 353,44 q 0,-1.2 0.85,-2.1 0.9,-0.9 2.15,-0.9 1.25,0 2.1,0.9 0.9,0.9 0.9,2.1"
       id="path105" />
  </g>
</svg>
