<?xml version="1.0" encoding="UTF-8" standalone="no"?>
<svg
   version="1.1"
   id="svg232"
   width="32"
   height="38"
   xmlns="http://www.w3.org/2000/svg"
   xmlns:svg="http://www.w3.org/2000/svg">
  <defs
     id="defs78">
    <linearGradient
       gradientUnits="userSpaceOnUse"
       x1="-819.20001"
       x2="819.20001"
       spreadMethod="pad"
       gradientTransform="matrix(0,-0.00366211,0.00366211,0,76,95)"
       id="gradient18">
      <stop
         offset="0"
         stop-color="#FFFFFF"
         id="stop37" />
      <stop
         offset="1"
         stop-color="#E2E2E2"
         id="stop38" />
    </linearGradient>
  </defs>
  <g
     id="g243"
     transform="translate(-60,-60)">
    <path
       stroke="none"
       fill="#ffffff"
       d="m 64,60 h 24 q 4,0 4,4 v 24 q 0,4 -4,4 H 64 q -4,0 -4,-4 V 64 q 0,-4 4,-4"
       id="path125" />
    <path
       stroke="none"
       fill="url(#gradient18)"
       d="m 82,92 -6,6 -6,-6 h 12"
       id="path126"
       style="fill:url(#gradient18)" />
    <path
       stroke="none"
       fill="#312d2d"
       d="m 86.9,69 v 2.1 l -0.2,0.65 -6.3,7.6 H 86 q 0.4,0 0.7,0.3 l 0.3,0.7 V 83 L 86.7,83.7 86,84 H 74 Q 73.6,84 73.3,83.7 73,83.4 73,83 v -2.1 l 0.25,-0.65 6.35,-7.6 h -5.35 l -0.7,-0.3 -0.3,-0.7 V 69 q 0,-0.4 0.3,-0.7 0.3,-0.3 0.7,-0.3 H 85.9 q 0.4,0 0.7,0.3 L 86.9,69 M 65,81 v -2 l 2,-4 h -2 v -2 h 6 v 2 l -2,4 h 2 v 2 h -6"
       id="path128" />
  </g>
</svg>
