<?xml version="1.0" encoding="UTF-8" standalone="no"?>
<svg
   version="1.1"
   id="svg232"
   width="32"
   height="38"
   xmlns="http://www.w3.org/2000/svg"
   xmlns:svg="http://www.w3.org/2000/svg">
  <defs
     id="defs78">
    <linearGradient
       gradientUnits="userSpaceOnUse"
       x1="-819.20001"
       x2="819.20001"
       spreadMethod="pad"
       gradientTransform="matrix(0,-0.00366211,0.00366211,0,156,95)"
       id="gradient3">
      <stop
         offset="0"
         stop-color="#FFFFFF"
         id="stop7" />
      <stop
         offset="1"
         stop-color="#E2E2E2"
         id="stop8" />
    </linearGradient>
  </defs>
  <g
     id="g248"
     transform="translate(-140,-60)">
    <path
       stroke="none"
       fill="#ffffff"
       d="m 144,60 h 24 q 4,0 4,4 v 24 q 0,4 -4,4 h -24 q -4,0 -4,-4 V 64 q 0,-4 4,-4"
       id="path82" />
    <path
       stroke="none"
       fill="url(#gradient3)"
       d="m 162,92 -6,6 -6,-6 h 12"
       id="path83"
       style="fill:url(#gradient3)" />
    <path
       stroke="none"
       fill="#312d2d"
       d="m 160.35,81.2 0.1,-0.05 q -1.9,1.85 -4.5,1.85 -2.55,0 -4.45,-1.8 l -0.1,-0.1 q -0.8,-0.95 -1.3,-2.05 -0.25,-0.6 0.05,-1.15 0.25,-0.55 0.9,-0.8 l 1.2,0.05 0.9,0.8 0.7,1.15 v 0.05 q 0.9,0.85 2.1,0.85 1.2,0 2,-0.85 l 0.05,-0.05 0.8,-1.05 q 0.15,-0.6 0.8,-0.9 l 1.25,-0.05 q 0.6,0.15 0.95,0.75 0.3,0.55 0.1,1.15 -0.5,1.2 -1.55,2.2 M 151,72 q 0.85,0 1.4,0.6 0.6,0.5 0.6,1.4 0,0.9 -0.6,1.5 -0.55,0.5 -1.4,0.5 -0.95,0 -1.45,-0.5 Q 149,74.9 149,74 q 0,-0.9 0.55,-1.4 0.5,-0.6 1.45,-0.6 m 10,0 q 0.85,0 1.4,0.6 0.6,0.5 0.6,1.4 0,0.9 -0.6,1.5 -0.55,0.5 -1.4,0.5 -0.95,0 -1.45,-0.5 Q 159,74.9 159,74 q 0,-0.9 0.55,-1.4 0.5,-0.6 1.45,-0.6"
       id="path119" />
  </g>
</svg>
