<?xml version="1.0" encoding="UTF-8" standalone="no"?>
<svg
   version="1.1"
   id="svg232"
   width="32"
   height="38"
   xmlns="http://www.w3.org/2000/svg"
   xmlns:svg="http://www.w3.org/2000/svg">
  <defs
     id="defs78">
    <linearGradient
       gradientUnits="userSpaceOnUse"
       x1="-819.20001"
       x2="819.20001"
       spreadMethod="pad"
       gradientTransform="matrix(0,-0.00366211,0.00366211,0,236,95)"
       id="gradient15">
      <stop
         offset="0"
         stop-color="#FFFFFF"
         id="stop31" />
      <stop
         offset="1"
         stop-color="#E2E2E2"
         id="stop32" />
    </linearGradient>
  </defs>
  <g
     id="g244"
     transform="translate(-220,-60)">
    <path
       stroke="none"
       fill="#ffffff"
       d="m 224,60 h 24 q 4,0 4,4 v 24 q 0,4 -4,4 h -24 q -4,0 -4,-4 V 64 q 0,-4 4,-4"
       id="path115" />
    <path
       stroke="none"
       fill="url(#gradient15)"
       d="m 242,92 -6,6 -6,-6 h 12"
       id="path116"
       style="fill:url(#gradient15)" />
    <path
       stroke="none"
       fill="#312d2d"
       d="M 229.55,72.6 229.6,72.55 227,71.7 227.7,70 235,72.25 234.25,74 233,73.6 V 74 q 0,0.9 -0.6,1.5 -0.55,0.5 -1.4,0.5 -0.95,0 -1.45,-0.5 Q 229,74.9 229,74 q 0,-0.9 0.55,-1.4 m 9.45,1.4 0.05,-0.4 -1.3,0.4 -0.75,-1.75 7.3,-2.25 0.7,1.7 -2.65,0.85 0.05,0.05 q 0.6,0.5 0.6,1.4 0,0.9 -0.6,1.5 -0.55,0.5 -1.4,0.5 -0.95,0 -1.45,-0.5 Q 239,74.9 239,74 m 1.35,4.8 q 1.05,1 1.55,2.2 0.2,0.6 -0.1,1.15 l -0.95,0.75 -1.25,-0.05 q -0.65,-0.3 -0.8,-0.9 L 238,80.9 237.95,80.85 q -0.8,-0.85 -2,-0.85 -1.2,0 -2.1,0.85 v 0.05 l -0.7,1.15 -0.9,0.8 -1.2,0.05 -0.9,-0.8 q -0.3,-0.55 -0.05,-1.15 0.5,-1.1 1.3,-2.05 l 0.1,-0.1 q 1.9,-1.8 4.45,-1.8 2.6,0 4.5,1.85 l -0.1,-0.05"
       id="path117" />
  </g>
</svg>
