<?xml version="1.0" encoding="UTF-8" standalone="no"?>
<svg
   version="1.1"
   id="svg232"
   width="32"
   height="38"
   xmlns="http://www.w3.org/2000/svg"
   xmlns:svg="http://www.w3.org/2000/svg">
  <defs
     id="defs78">
    <linearGradient
       gradientUnits="userSpaceOnUse"
       x1="-819.20001"
       x2="819.20001"
       spreadMethod="pad"
       gradientTransform="matrix(0,-0.00366211,0.00366211,0,196,55)"
       id="gradient9">
      <stop
         offset="0"
         stop-color="#FFFFFF"
         id="stop19" />
      <stop
         offset="1"
         stop-color="#E2E2E2"
         id="stop20" />
    </linearGradient>
  </defs>
  <g
     id="g250"
     transform="translate(-180,-20)">
    <path
       stroke="none"
       fill="#ffffff"
       d="m 184,20 h 24 q 4,0 4,4 v 24 q 0,4 -4,4 h -24 q -4,0 -4,-4 V 24 q 0,-4 4,-4"
       id="path94" />
    <path
       stroke="none"
       fill="url(#gradient9)"
       d="m 202,52 -6,6 -6,-6 h 12"
       id="path100"
       style="fill:url(#gradient9)" />
    <path
       stroke="none"
       fill="#ff0054"
       d="m 201.3,29.75 q 1.75,-1.15 3.8,-0.6 2,0.55 3.05,2.45 h 0.05 q 0.95,1.85 0.4,3.8 -0.45,1.7 -1.8,2.7 l -0.55,0.45 -8.45,4.9 -0.7,0.15 3.7,-6.15 -2.5,-4.2 3,-3.5 m -6.4,13.8 -0.75,-0.1 -8.4,-4.95 -0.6,-0.4 q -1.3,-1 -1.75,-2.7 -0.55,-1.95 0.45,-3.85 1.05,-1.85 3,-2.4 2.05,-0.55 3.85,0.6 l 0.65,0.4 -1.2,4.95 4.8,2.5 -0.05,5.95"
       id="path102" />
  </g>
</svg>
