<?xml version="1.0" encoding="UTF-8" standalone="no"?>
<svg
   version="1.1"
   id="svg232"
   width="32"
   height="38"
   xmlns="http://www.w3.org/2000/svg"
   xmlns:svg="http://www.w3.org/2000/svg">
  <defs
     id="defs78">
    <linearGradient
       gradientUnits="userSpaceOnUse"
       x1="-819.20001"
       x2="819.20001"
       spreadMethod="pad"
       gradientTransform="matrix(0,-0.00366211,0.00366211,0,236,55)"
       id="gradient10">
      <stop
         offset="0"
         stop-color="#FFFFFF"
         id="stop21" />
      <stop
         offset="1"
         stop-color="#E2E2E2"
         id="stop22" />
    </linearGradient>
  </defs>
  <g
     id="g232"
     transform="translate(-220,-20)">
    <path
       stroke="none"
       fill="#ffffff"
       d="m 224,20 h 24 q 4,0 4,4 v 24 q 0,4 -4,4 h -24 q -4,0 -4,-4 V 24 q 0,-4 4,-4"
       id="path95" />
    <path
       stroke="none"
       fill="#ff0054"
       d="M 236.5,30.55 Q 237.9,29 240,29 q 2.05,0 3.55,1.55 h 0.05 q 1.4,1.55 1.4,3.6 0,1.75 -1,3.05 l -0.45,0.55 -6.85,6.95 -0.7,0.3 q -0.4,0 -0.7,-0.3 L 228.45,37.75 228,37.2 q -1,-1.3 -1,-3.05 0,-2.05 1.45,-3.6 1.5,-1.55 3.55,-1.55 2.1,0 3.5,1.55 l 0.5,0.6 0.5,-0.6"
       id="path96" />
    <path
       stroke="none"
       fill="url(#gradient10)"
       d="m 242,52 -6,6 -6,-6 h 12"
       id="path101"
       style="fill:url(#gradient10)" />
  </g>
</svg>
