<?xml version="1.0" encoding="UTF-8" standalone="no"?>
<svg
   version="1.1"
   id="svg232"
   width="32"
   height="38"
   xmlns="http://www.w3.org/2000/svg"
   xmlns:svg="http://www.w3.org/2000/svg">
  <defs
     id="defs78">
    <linearGradient
       gradientUnits="userSpaceOnUse"
       x1="-819.20001"
       x2="819.20001"
       spreadMethod="pad"
       gradientTransform="matrix(0,-0.00366211,0.00366211,0,196,95)"
       id="gradient14">
      <stop
         offset="0"
         stop-color="#FFFFFF"
         id="stop29" />
      <stop
         offset="1"
         stop-color="#E2E2E2"
         id="stop30" />
    </linearGradient>
  </defs>
  <g
     id="g245"
     transform="translate(-180,-60)">
    <path
       stroke="none"
       fill="#ffffff"
       d="m 184,60 h 24 q 4,0 4,4 v 24 q 0,4 -4,4 h -24 q -4,0 -4,-4 V 64 q 0,-4 4,-4"
       id="path113" />
    <path
       stroke="none"
       fill="url(#gradient14)"
       d="m 202,92 -6,6 -6,-6 h 12"
       id="path114"
       style="fill:url(#gradient14)" />
    <path
       stroke="none"
       fill="#312d2d"
       d="m 191,72 q 0.85,0 1.4,0.6 0.6,0.5 0.6,1.4 0,0.9 -0.6,1.5 -0.55,0.5 -1.4,0.5 -0.95,0 -1.45,-0.5 Q 189,74.9 189,74 q 0,-0.9 0.55,-1.4 0.5,-0.6 1.45,-0.6 m 9.35,6.8 q 1.05,1 1.55,2.2 0.2,0.6 -0.1,1.15 l -0.95,0.75 -1.25,-0.05 q -0.65,-0.3 -0.8,-0.9 L 198,80.9 197.95,80.85 q -0.8,-0.85 -2,-0.85 -1.2,0 -2.1,0.85 v 0.05 l -0.7,1.15 -0.9,0.8 -1.2,0.05 -0.9,-0.8 q -0.3,-0.55 -0.05,-1.15 0.5,-1.1 1.3,-2.05 l 0.1,-0.1 q 1.9,-1.8 4.45,-1.8 2.6,0 4.5,1.85 l -0.1,-0.05 M 201,72 q 0.85,0 1.4,0.6 0.6,0.5 0.6,1.4 0,0.9 -0.6,1.5 -0.55,0.5 -1.4,0.5 -0.95,0 -1.45,-0.5 Q 199,74.9 199,74 q 0,-0.9 0.55,-1.4 0.5,-0.6 1.45,-0.6"
       id="path118" />
  </g>
</svg>
