<?xml version="1.0" encoding="UTF-8" standalone="no"?>
<svg
   version="1.1"
   id="svg232"
   width="32"
   height="38"
   xmlns="http://www.w3.org/2000/svg"
   xmlns:svg="http://www.w3.org/2000/svg">
  <defs
     id="defs78">
    <linearGradient
       gradientUnits="userSpaceOnUse"
       x1="-819.20001"
       x2="819.20001"
       spreadMethod="pad"
       gradientTransform="matrix(0,-0.00366211,0.00366211,0,356,135)"
       id="gradient34">
      <stop
         offset="0"
         stop-color="#FFFFFF"
         id="stop69" />
      <stop
         offset="1"
         stop-color="#E2E2E2"
         id="stop70" />
    </linearGradient>
  </defs>
  <g
     id="g238"
     transform="translate(-340,-100)">
    <path
       stroke="none"
       fill="#ffffff"
       d="m 344,100 h 24 q 4,0 4,4 v 24 q 0,4 -4,4 h -24 q -4,0 -4,-4 v -24 q 0,-4 4,-4"
       id="path161" />
    <path
       stroke="none"
       fill="url(#gradient34)"
       d="m 362,132 -6,6 -6,-6 h 12"
       id="path162"
       style="fill:url(#gradient34)" />
    <path
       stroke="none"
       fill="#312d2d"
       d="m 355.45,115 h -2.3 v -3 h -2.8 v 3 H 348 v -8 h 2.35 v 3.15 h 2.8 V 107 h 2.3 v 8 m 0,10 h -2.3 v -3 h -2.8 v 3 H 348 v -8 h 2.35 v 3.15 h 2.8 V 117 h 2.3 v 8 m 6,-3.05 -0.95,-2.6 -1,2.6 h 1.95 m 0.6,1.75 h -3.15 l -0.5,1.3 H 356 l 3.35,-8 h 2.4 l 3.25,8 h -2.45 l -0.5,-1.3 m 0,-10 h -3.15 l -0.5,1.3 H 356 l 3.35,-8 h 2.4 l 3.25,8 h -2.45 l -0.5,-1.3 m -0.6,-1.75 -0.95,-2.6 -1,2.6 h 1.95"
       id="path174" />
  </g>
</svg>
