<?xml version="1.0" encoding="UTF-8" standalone="no"?>
<svg
   version="1.1"
   id="svg232"
   width="32"
   height="38"
   xmlns="http://www.w3.org/2000/svg"
   xmlns:svg="http://www.w3.org/2000/svg">
  <defs
     id="defs78">
    <linearGradient
       gradientUnits="userSpaceOnUse"
       x1="-819.20001"
       x2="819.20001"
       spreadMethod="pad"
       gradientTransform="matrix(0,-0.00366211,0.00366211,0,236,135)"
       id="gradient4">
      <stop
         offset="0"
         stop-color="#FFFFFF"
         id="stop9" />
      <stop
         offset="1"
         stop-color="#E2E2E2"
         id="stop10" />
    </linearGradient>
  </defs>
  <g
     id="g249"
     transform="translate(-220,-100)">
    <path
       stroke="none"
       fill="#ffffff"
       d="m 224,100 h 24 q 4,0 4,4 v 24 q 0,4 -4,4 h -24 q -4,0 -4,-4 v -24 q 0,-4 4,-4"
       id="path84" />
    <path
       stroke="none"
       fill="url(#gradient4)"
       d="m 242,132 -6,6 -6,-6 h 12"
       id="path85"
       style="fill:url(#gradient4)" />
    <path
       stroke="none"
       fill="#ff3300"
       d="m 227.3,111.3 4,-4 q 0.3,-0.3 0.7,-0.3 0.4,0 0.7,0.3 l 3.3,3.3 3.3,-3.3 q 0.3,-0.3 0.7,-0.3 0.4,0 0.7,0.3 l 4,4 0.3,0.7 -0.3,0.7 -3.3,3.3 3.3,3.3 0.3,0.7 -0.3,0.7 -4,4 q -0.3,0.3 -0.7,0.3 l -0.7,-0.3 -3.3,-3.3 -3.3,3.3 -0.7,0.3 q -0.4,0 -0.7,-0.3 l -4,-4 q -0.3,-0.3 -0.3,-0.7 0,-0.4 0.3,-0.7 l 3.3,-3.3 -3.3,-3.3 q -0.3,-0.3 -0.3,-0.7 0,-0.4 0.3,-0.7"
       id="path112" />
  </g>
</svg>
