<?xml version="1.0" encoding="UTF-8" standalone="no"?>
<svg
   version="1.1"
   id="svg232"
   width="32"
   height="38"
   xmlns="http://www.w3.org/2000/svg"
   xmlns:svg="http://www.w3.org/2000/svg">
  <defs
     id="defs78">
    <linearGradient
       gradientUnits="userSpaceOnUse"
       x1="-819.20001"
       x2="819.20001"
       spreadMethod="pad"
       gradientTransform="matrix(0,-0.00366211,0.00366211,0,396,95)"
       id="gradient22">
      <stop
         offset="0"
         stop-color="#FFFFFF"
         id="stop45" />
      <stop
         offset="1"
         stop-color="#E2E2E2"
         id="stop46" />
    </linearGradient>
  </defs>
  <g
     id="g241"
     transform="translate(-380,-60)">
    <path
       stroke="none"
       fill="#ffffff"
       d="m 384,60 h 24 q 4,0 4,4 v 24 q 0,4 -4,4 h -24 q -4,0 -4,-4 V 64 q 0,-4 4,-4"
       id="path138" />
    <path
       stroke="none"
       fill="url(#gradient22)"
       d="m 402,92 -6,6 -6,-6 h 12"
       id="path139"
       style="fill:url(#gradient22)" />
    <path
       stroke="none"
       fill="#312d2d"
       d="m 397.2,78 q 1.15,-1 2.8,-1 v -4 h -6 v 9 0.2 0.3 q 0,1.55 -1.25,2.55 V 85 q -1.1,1 -2.75,1 -1.65,0 -2.8,-0.95 h 0.05 Q 386,84 386,82.5 q 0,-1.45 1.2,-2.5 1.15,-1 2.8,-1 V 68 q 0,-0.4 0.3,-0.7 0.3,-0.3 0.7,-0.3 h 12 q 0.4,0 0.7,0.3 L 404,68 v 12 0.2 0.3 q 0,1.55 -1.25,2.55 V 83 q -1.1,1 -2.75,1 -1.65,0 -2.8,-0.95 h 0.05 Q 396,82 396,80.5 q 0,-1.45 1.2,-2.5"
       id="path140" />
  </g>
</svg>
