<?xml version="1.0" encoding="UTF-8" standalone="no"?>
<svg
   version="1.1"
   id="svg232"
   width="32"
   height="38"
   xmlns="http://www.w3.org/2000/svg"
   xmlns:svg="http://www.w3.org/2000/svg">
  <defs
     id="defs78">
    <linearGradient
       gradientUnits="userSpaceOnUse"
       x1="-819.20001"
       x2="819.20001"
       spreadMethod="pad"
       gradientTransform="matrix(0,-0.00366211,0.00366211,0,316,135)"
       id="gradient33">
      <stop
         offset="0"
         stop-color="#FFFFFF"
         id="stop67" />
      <stop
         offset="1"
         stop-color="#E2E2E2"
         id="stop68" />
    </linearGradient>
  </defs>
  <g
     id="g239"
     transform="translate(-300,-100)">
    <path
       stroke="none"
       fill="#ffffff"
       d="m 304,100 h 24 q 4,0 4,4 v 24 q 0,4 -4,4 h -24 q -4,0 -4,-4 v -24 q 0,-4 4,-4"
       id="path159" />
    <path
       stroke="none"
       fill="url(#gradient33)"
       d="m 322,132 -6,6 -6,-6 h 12"
       id="path160"
       style="fill:url(#gradient33)" />
    <path
       stroke="none"
       fill="#ff9900"
       d="m 313,119.25 -1.25,-1 Q 310,116.5 310,114 q 0,-2.5 1.75,-4.25 1.75,-1.75 4.25,-1.75 2.5,0 4.25,1.75 1.75,1.75 1.75,4.25 0,2.5 -1.75,4.25 l -1.25,1 -1,0.45 V 115 h -4 v 4.7 l -1,-0.45 m 2,0.7 V 116 h 2 v 3.95 l -1,0.05 -1,-0.05"
       id="path170" />
    <path
       stroke="none"
       fill="#f7bd66"
       d="m 315,119.95 -1,-0.25 V 115 h 4 v 4.7 l -1,0.25 V 116 h -2 v 3.95"
       id="path171" />
    <path
       stroke="none"
       fill="#cccccc"
       d="m 315,119.95 1,0.05 1,-0.05 1,-0.25 1,-0.45 v 2.8 l -0.3,0.65 -0.7,0.3 h -4 l -0.7,-0.3 q -0.3,-0.25 -0.3,-0.65 v -2.8 l 1,0.45 1,0.25"
       id="path172" />
    <path
       stroke="none"
       fill="#666666"
       d="m 318,123 v 1.1 l -0.3,0.6 -0.7,0.3 h -2 l -0.7,-0.3 Q 314,124.45 314,124.1 V 123 h 4"
       id="path173" />
  </g>
</svg>
