<?xml version="1.0" encoding="UTF-8" standalone="no"?>
<svg
   version="1.1"
   id="svg232"
   width="32"
   height="38"
   xmlns="http://www.w3.org/2000/svg"
   xmlns:svg="http://www.w3.org/2000/svg">
  <defs
     id="defs78">
    <linearGradient
       gradientUnits="userSpaceOnUse"
       x1="-819.20001"
       x2="819.20001"
       spreadMethod="pad"
       gradientTransform="matrix(0,-0.00366211,0.00366211,0,316,95)"
       id="gradient20">
      <stop
         offset="0"
         stop-color="#FFFFFF"
         id="stop41" />
      <stop
         offset="1"
         stop-color="#E2E2E2"
         id="stop42" />
    </linearGradient>
  </defs>
  <g
     id="g242"
     transform="translate(-300,-60)">
    <path
       stroke="none"
       fill="#ffffff"
       d="m 304,60 h 24 q 4,0 4,4 v 24 q 0,4 -4,4 h -24 q -4,0 -4,-4 V 64 q 0,-4 4,-4"
       id="path132" />
    <path
       stroke="none"
       fill="url(#gradient20)"
       d="m 322,92 -6,6 -6,-6 h 12"
       id="path133"
       style="fill:url(#gradient20)" />
    <path
       stroke="none"
       fill="#ff9900"
       d="m 316.9,68.5 2.25,3.5 4.1,1 q 0.35,0.05 0.55,0.35 l 0.2,0.65 -0.25,0.6 -2.7,3.15 0.3,4.2 -0.15,0.65 -0.55,0.35 H 320 l -3.95,-1.6 -4,1.6 h -0.7 l -0.5,-0.4 q -0.25,-0.3 -0.2,-0.6 L 311,77.75 308.25,74.6 308,74 l 0.2,-0.65 q 0.2,-0.3 0.6,-0.35 l 4.1,-1 2.3,-3.55 q 0.2,-0.3 0.55,-0.4 h 0.65 l 0.5,0.45"
       id="path134" />
  </g>
</svg>
