<?xml version="1.0" encoding="UTF-8" standalone="no"?>
<svg
   version="1.1"
   id="svg232"
   width="32"
   height="38"
   xmlns="http://www.w3.org/2000/svg"
   xmlns:svg="http://www.w3.org/2000/svg">
  <defs
     id="defs78">
    <linearGradient
       gradientUnits="userSpaceOnUse"
       x1="-819.20001"
       x2="819.20001"
       spreadMethod="pad"
       gradientTransform="matrix(0,-0.00366211,0.00366211,0,396,55)"
       id="gradient12">
      <stop
         offset="0"
         stop-color="#FFFFFF"
         id="stop25" />
      <stop
         offset="1"
         stop-color="#E2E2E2"
         id="stop26" />
    </linearGradient>
  </defs>
  <g
     id="g246"
     transform="translate(-380,-20)">
    <path
       stroke="none"
       fill="#ffffff"
       d="m 384,20 h 24 q 4,0 4,4 v 24 q 0,4 -4,4 h -24 q -4,0 -4,-4 V 24 q 0,-4 4,-4"
       id="path106" />
    <path
       stroke="none"
       fill="url(#gradient12)"
       d="m 402,52 -6,6 -6,-6 h 12"
       id="path107"
       style="fill:url(#gradient12)" />
    <path
       stroke="none"
       fill="#3498db"
       d="m 396.15,26 q 2.65,0.05 4.15,1.25 l 0.05,0.05 q 1.6,1.3 1.65,3.75 v 0.05 q -0.05,1.65 -0.65,2.7 l -1.45,1.75 -1.2,1.3 q -0.35,0.55 -0.35,1.3 l -0.3,0.65 -0.6,0.2 h -2.7 l -0.6,-0.25 q -0.3,-0.3 -0.3,-0.6 0,-1.65 0.6,-2.65 v -0.05 l 1.15,-1.55 v -0.05 l 1,-1.15 0.3,-1.05 -0.25,-0.6 -0.85,-0.25 q -0.55,0 -0.9,0.35 -0.3,0.4 -0.35,1.15 l -0.3,0.6 -0.6,0.2 h -2.8 l -0.6,-0.25 -0.25,-0.6 q 0.05,-3 1.75,-4.55 1.55,-1.65 4.35,-1.7 h 0.05 M 396,41 q 1.3,0 2.1,0.85 0.9,0.8 0.9,2.15 0,1.35 -0.9,2.2 -0.8,0.8 -2.1,0.8 -1.4,0 -2.15,-0.8 Q 393,45.35 393,44 393,42.65 393.85,41.85 394.6,41 396,41"
       id="path108" />
  </g>
</svg>
