<?xml version="1.0" encoding="UTF-8" standalone="no"?>
<svg
   version="1.1"
   id="svg232"
   width="32"
   height="38"
   xmlns="http://www.w3.org/2000/svg"
   xmlns:svg="http://www.w3.org/2000/svg">
  <defs
     id="defs78">
    <linearGradient
       gradientUnits="userSpaceOnUse"
       x1="-819.20001"
       x2="819.20001"
       spreadMethod="pad"
       gradientTransform="matrix(0,-0.00366211,0.00366211,0,156,135)"
       id="gradient31">
      <stop
         offset="0"
         stop-color="#FFFFFF"
         id="stop63" />
      <stop
         offset="1"
         stop-color="#E2E2E2"
         id="stop64" />
    </linearGradient>
  </defs>
  <g
     id="g240"
     transform="translate(-140,-100)">
    <path
       stroke="none"
       fill="#ffffff"
       d="m 144,100 h 24 q 4,0 4,4 v 24 q 0,4 -4,4 h -24 q -4,0 -4,-4 v -24 q 0,-4 4,-4"
       id="path155" />
    <path
       stroke="none"
       fill="url(#gradient31)"
       d="m 162,132 -6,6 -6,-6 h 12"
       id="path156"
       style="fill:url(#gradient31)" />
    <path
       stroke="none"
       fill="#ff9900"
       d="m 155.65,113.15 -0.7,0.1 -0.05,0.05 0.15,0.25 h 0.05 l 1.05,0.45 1.7,0.5 q 1,0.3 1.9,0.85 l -0.05,-0.05 q 1.05,0.5 1.7,1.5 0.65,0.9 0.65,2.4 0,1.55 -0.7,2.55 -0.7,1.05 -1.85,1.7 l -1.7,0.6 v 2.05 l -0.3,0.65 -0.65,0.25 h -2.3 l -0.6,-0.25 -0.3,-0.65 V 124 l -1.95,-0.7 v 0.05 l -2.4,-1.5 -0.25,-0.5 q -0.1,-0.35 0.05,-0.6 l 1.2,-2.5 0.45,-0.35 q 0.2,-0.2 0.55,-0.15 l 0.5,0.3 1.3,0.95 1.5,0.6 1.3,0.15 1,-0.15 0.1,-0.15 -0.2,-0.25 q -0.4,-0.3 -1,-0.45 l -1.75,-0.55 -1.85,-0.7 q -1.05,-0.5 -1.65,-1.45 -0.75,-0.95 -0.75,-2.45 0,-2 1.35,-3.25 0.95,-1 2.5,-1.35 v -2.05 q 0,-0.4 0.3,-0.65 0.25,-0.3 0.6,-0.3 h 2.3 q 0.4,0 0.65,0.3 l 0.3,0.65 v 1.9 l 1.65,0.4 q 1.15,0.45 2.15,1.05 l 0.35,0.55 -0.05,0.65 -1.2,2.5 -0.3,0.35 -0.45,0.15 -0.5,-0.1 -1.4,-0.7 h 0.05 l -1.35,-0.4 -1.1,-0.15"
       id="path165" />
  </g>
</svg>
